<mxfile host="app.diagrams.net" modified="2023-06-16T22:19:30.212Z" agent="Mozilla/5.0 (Windows NT 10.0; Win64; x64; rv:109.0) Gecko/20100101 Firefox/114.0" etag="IndCjdIacBNUAA6FI2Jz" version="21.4.0" type="device">
  <diagram id="3gdgaAoiL9pz8iENFEGY" name="Seite-1">
    <mxGraphModel dx="1838" dy="924" grid="1" gridSize="10" guides="1" tooltips="1" connect="1" arrows="1" fold="1" page="1" pageScale="1" pageWidth="827" pageHeight="1169" math="0" shadow="0">
      <root>
        <mxCell id="0" />
        <mxCell id="1" parent="0" />
        <mxCell id="u8SPaS517Cv4ZTtqpxez-59" value="Server Side" style="rounded=0;whiteSpace=wrap;html=1;fillColor=none;verticalAlign=top;" parent="1" vertex="1">
          <mxGeometry x="310" y="50" width="840" height="610" as="geometry" />
        </mxCell>
        <mxCell id="u8SPaS517Cv4ZTtqpxez-6" value="&lt;div&gt;DAL&lt;/div&gt;&lt;div&gt;(Data Access Layer)&lt;/div&gt;" style="rounded=0;whiteSpace=wrap;html=1;fillColor=none;verticalAlign=top;" parent="1" vertex="1">
          <mxGeometry x="827" y="80" width="150" height="560" as="geometry" />
        </mxCell>
        <mxCell id="u8SPaS517Cv4ZTtqpxez-62" value="Client Side" style="rounded=0;whiteSpace=wrap;html=1;fillColor=none;verticalAlign=top;" parent="1" vertex="1">
          <mxGeometry x="20" y="50" width="140" height="610" as="geometry" />
        </mxCell>
        <mxCell id="2jFotZzuo-0jKtzKab7L-36" style="edgeStyle=orthogonalEdgeStyle;rounded=0;orthogonalLoop=1;jettySize=auto;html=1;exitX=1;exitY=0.5;exitDx=0;exitDy=0;entryX=0;entryY=0.5;entryDx=0;entryDy=0;dashed=1;" edge="1" parent="1" source="u8SPaS517Cv4ZTtqpxez-1" target="u8SPaS517Cv4ZTtqpxez-3">
          <mxGeometry relative="1" as="geometry" />
        </mxCell>
        <mxCell id="2jFotZzuo-0jKtzKab7L-37" style="edgeStyle=orthogonalEdgeStyle;rounded=0;orthogonalLoop=1;jettySize=auto;html=1;exitX=1;exitY=0.5;exitDx=0;exitDy=0;dashed=1;" edge="1" parent="1" source="u8SPaS517Cv4ZTtqpxez-1" target="u8SPaS517Cv4ZTtqpxez-12">
          <mxGeometry relative="1" as="geometry" />
        </mxCell>
        <mxCell id="2jFotZzuo-0jKtzKab7L-38" style="edgeStyle=orthogonalEdgeStyle;rounded=0;orthogonalLoop=1;jettySize=auto;html=1;exitX=1;exitY=0.5;exitDx=0;exitDy=0;entryX=0;entryY=0.5;entryDx=0;entryDy=0;dashed=1;" edge="1" parent="1" source="u8SPaS517Cv4ZTtqpxez-1" target="2jFotZzuo-0jKtzKab7L-10">
          <mxGeometry relative="1" as="geometry" />
        </mxCell>
        <mxCell id="u8SPaS517Cv4ZTtqpxez-1" value="SpringBoot Router" style="rounded=0;whiteSpace=wrap;html=1;fillColor=none;verticalAlign=top;" parent="1" vertex="1">
          <mxGeometry x="330" y="80" width="80" height="560" as="geometry" />
        </mxCell>
        <mxCell id="u8SPaS517Cv4ZTtqpxez-2" value="Tour Service" style="rounded=0;whiteSpace=wrap;html=1;fillColor=none;verticalAlign=top;" parent="1" vertex="1">
          <mxGeometry x="470" y="80" width="260" height="180" as="geometry" />
        </mxCell>
        <mxCell id="u8SPaS517Cv4ZTtqpxez-38" style="edgeStyle=orthogonalEdgeStyle;rounded=0;orthogonalLoop=1;jettySize=auto;html=1;exitX=1;exitY=0.5;exitDx=0;exitDy=0;entryX=0;entryY=0.5;entryDx=0;entryDy=0;dashed=1;" parent="1" source="u8SPaS517Cv4ZTtqpxez-3" target="u8SPaS517Cv4ZTtqpxez-4" edge="1">
          <mxGeometry relative="1" as="geometry" />
        </mxCell>
        <mxCell id="u8SPaS517Cv4ZTtqpxez-39" style="edgeStyle=orthogonalEdgeStyle;rounded=0;orthogonalLoop=1;jettySize=auto;html=1;exitX=0.5;exitY=1;exitDx=0;exitDy=0;entryX=0;entryY=0.5;entryDx=0;entryDy=0;dashed=1;" parent="1" source="u8SPaS517Cv4ZTtqpxez-3" target="u8SPaS517Cv4ZTtqpxez-5" edge="1">
          <mxGeometry relative="1" as="geometry" />
        </mxCell>
        <mxCell id="u8SPaS517Cv4ZTtqpxez-3" value="Controller" style="rounded=0;whiteSpace=wrap;html=1;fillColor=none;" parent="1" vertex="1">
          <mxGeometry x="500" y="120" width="80" height="40" as="geometry" />
        </mxCell>
        <mxCell id="2jFotZzuo-0jKtzKab7L-24" style="edgeStyle=orthogonalEdgeStyle;rounded=0;orthogonalLoop=1;jettySize=auto;html=1;exitX=1;exitY=0.5;exitDx=0;exitDy=0;entryX=0;entryY=0.25;entryDx=0;entryDy=0;dashed=1;" edge="1" parent="1" source="u8SPaS517Cv4ZTtqpxez-4" target="u8SPaS517Cv4ZTtqpxez-20">
          <mxGeometry relative="1" as="geometry">
            <Array as="points">
              <mxPoint x="750" y="140" />
              <mxPoint x="750" y="130" />
            </Array>
          </mxGeometry>
        </mxCell>
        <mxCell id="2jFotZzuo-0jKtzKab7L-25" style="edgeStyle=orthogonalEdgeStyle;rounded=0;orthogonalLoop=1;jettySize=auto;html=1;exitX=1;exitY=0.5;exitDx=0;exitDy=0;entryX=0;entryY=0.25;entryDx=0;entryDy=0;dashed=1;" edge="1" parent="1" source="u8SPaS517Cv4ZTtqpxez-4" target="u8SPaS517Cv4ZTtqpxez-22">
          <mxGeometry relative="1" as="geometry">
            <Array as="points">
              <mxPoint x="750" y="140" />
              <mxPoint x="750" y="520" />
            </Array>
          </mxGeometry>
        </mxCell>
        <mxCell id="u8SPaS517Cv4ZTtqpxez-4" value="Model" style="rounded=0;whiteSpace=wrap;html=1;fillColor=none;" parent="1" vertex="1">
          <mxGeometry x="620" y="120" width="80" height="40" as="geometry" />
        </mxCell>
        <mxCell id="u8SPaS517Cv4ZTtqpxez-5" value="View (Response)" style="rounded=0;whiteSpace=wrap;html=1;fillColor=none;" parent="1" vertex="1">
          <mxGeometry x="560" y="190" width="80" height="40" as="geometry" />
        </mxCell>
        <mxCell id="u8SPaS517Cv4ZTtqpxez-10" value="&lt;div&gt;PostgreSQL&lt;/div&gt;&lt;div&gt;Database&lt;br&gt;&lt;/div&gt;" style="shape=datastore;whiteSpace=wrap;html=1;fillColor=none;" parent="1" vertex="1">
          <mxGeometry x="1030" y="130" width="90" height="220" as="geometry" />
        </mxCell>
        <mxCell id="u8SPaS517Cv4ZTtqpxez-11" value="TourLog Service" style="rounded=0;whiteSpace=wrap;html=1;fillColor=none;verticalAlign=top;" parent="1" vertex="1">
          <mxGeometry x="470" y="280" width="260" height="170" as="geometry" />
        </mxCell>
        <mxCell id="u8SPaS517Cv4ZTtqpxez-40" style="edgeStyle=orthogonalEdgeStyle;rounded=0;orthogonalLoop=1;jettySize=auto;html=1;exitX=0.5;exitY=1;exitDx=0;exitDy=0;entryX=0;entryY=0.5;entryDx=0;entryDy=0;dashed=1;" parent="1" source="u8SPaS517Cv4ZTtqpxez-12" target="u8SPaS517Cv4ZTtqpxez-14" edge="1">
          <mxGeometry relative="1" as="geometry" />
        </mxCell>
        <mxCell id="u8SPaS517Cv4ZTtqpxez-41" style="edgeStyle=orthogonalEdgeStyle;rounded=0;orthogonalLoop=1;jettySize=auto;html=1;exitX=1;exitY=0.5;exitDx=0;exitDy=0;entryX=0;entryY=0.5;entryDx=0;entryDy=0;dashed=1;" parent="1" source="u8SPaS517Cv4ZTtqpxez-12" target="u8SPaS517Cv4ZTtqpxez-13" edge="1">
          <mxGeometry relative="1" as="geometry" />
        </mxCell>
        <mxCell id="u8SPaS517Cv4ZTtqpxez-12" value="Controller" style="rounded=0;whiteSpace=wrap;html=1;fillColor=none;" parent="1" vertex="1">
          <mxGeometry x="500" y="320" width="80" height="40" as="geometry" />
        </mxCell>
        <mxCell id="2jFotZzuo-0jKtzKab7L-26" style="edgeStyle=orthogonalEdgeStyle;rounded=0;orthogonalLoop=1;jettySize=auto;html=1;exitX=1;exitY=0.5;exitDx=0;exitDy=0;entryX=0;entryY=0.5;entryDx=0;entryDy=0;dashed=1;" edge="1" parent="1" source="u8SPaS517Cv4ZTtqpxez-13" target="u8SPaS517Cv4ZTtqpxez-20">
          <mxGeometry relative="1" as="geometry">
            <Array as="points">
              <mxPoint x="770" y="340" />
              <mxPoint x="770" y="140" />
            </Array>
          </mxGeometry>
        </mxCell>
        <mxCell id="2jFotZzuo-0jKtzKab7L-27" style="edgeStyle=orthogonalEdgeStyle;rounded=0;orthogonalLoop=1;jettySize=auto;html=1;exitX=1;exitY=0.5;exitDx=0;exitDy=0;dashed=1;" edge="1" parent="1" source="u8SPaS517Cv4ZTtqpxez-13" target="u8SPaS517Cv4ZTtqpxez-21">
          <mxGeometry relative="1" as="geometry" />
        </mxCell>
        <mxCell id="u8SPaS517Cv4ZTtqpxez-13" value="Model" style="rounded=0;whiteSpace=wrap;html=1;fillColor=none;" parent="1" vertex="1">
          <mxGeometry x="620" y="320" width="80" height="40" as="geometry" />
        </mxCell>
        <mxCell id="u8SPaS517Cv4ZTtqpxez-14" value="View (Response)" style="rounded=0;whiteSpace=wrap;html=1;fillColor=none;" parent="1" vertex="1">
          <mxGeometry x="560" y="380" width="80" height="40" as="geometry" />
        </mxCell>
        <mxCell id="2jFotZzuo-0jKtzKab7L-40" style="edgeStyle=orthogonalEdgeStyle;rounded=0;orthogonalLoop=1;jettySize=auto;html=1;entryX=0;entryY=0.5;entryDx=0;entryDy=0;dashed=1;" edge="1" parent="1" source="u8SPaS517Cv4ZTtqpxez-17" target="u8SPaS517Cv4ZTtqpxez-1">
          <mxGeometry relative="1" as="geometry" />
        </mxCell>
        <mxCell id="u8SPaS517Cv4ZTtqpxez-17" value="" style="sketch=0;outlineConnect=0;fontColor=#232F3E;gradientColor=none;fillColor=#232F3D;strokeColor=none;dashed=0;verticalLabelPosition=bottom;verticalAlign=top;align=center;html=1;fontSize=12;fontStyle=0;aspect=fixed;pointerEvents=1;shape=mxgraph.aws4.internet_alt2;labelBorderColor=none;" parent="1" vertex="1">
          <mxGeometry x="220" y="335" width="50" height="50" as="geometry" />
        </mxCell>
        <mxCell id="2jFotZzuo-0jKtzKab7L-30" style="edgeStyle=orthogonalEdgeStyle;rounded=0;orthogonalLoop=1;jettySize=auto;html=1;exitX=1;exitY=0.5;exitDx=0;exitDy=0;dashed=1;" edge="1" parent="1" source="u8SPaS517Cv4ZTtqpxez-20" target="u8SPaS517Cv4ZTtqpxez-10">
          <mxGeometry relative="1" as="geometry">
            <Array as="points">
              <mxPoint x="1000" y="140" />
              <mxPoint x="1000" y="240" />
            </Array>
          </mxGeometry>
        </mxCell>
        <mxCell id="u8SPaS517Cv4ZTtqpxez-20" value="&lt;div&gt;Tour&lt;/div&gt;&lt;div&gt;Repository&lt;br&gt;&lt;/div&gt;" style="rounded=0;whiteSpace=wrap;html=1;fillColor=none;" parent="1" vertex="1">
          <mxGeometry x="862" y="120" width="80" height="40" as="geometry" />
        </mxCell>
        <mxCell id="2jFotZzuo-0jKtzKab7L-31" style="edgeStyle=orthogonalEdgeStyle;rounded=0;orthogonalLoop=1;jettySize=auto;html=1;exitX=1;exitY=0.5;exitDx=0;exitDy=0;entryX=0;entryY=0.5;entryDx=0;entryDy=0;dashed=1;" edge="1" parent="1" source="u8SPaS517Cv4ZTtqpxez-21" target="u8SPaS517Cv4ZTtqpxez-10">
          <mxGeometry relative="1" as="geometry">
            <Array as="points">
              <mxPoint x="1000" y="340" />
              <mxPoint x="1000" y="240" />
            </Array>
          </mxGeometry>
        </mxCell>
        <mxCell id="u8SPaS517Cv4ZTtqpxez-21" value="&lt;div&gt;TourLog&lt;/div&gt;&lt;div&gt;Repository&lt;/div&gt;" style="rounded=0;whiteSpace=wrap;html=1;fillColor=none;" parent="1" vertex="1">
          <mxGeometry x="862" y="320" width="80" height="40" as="geometry" />
        </mxCell>
        <mxCell id="2jFotZzuo-0jKtzKab7L-32" style="edgeStyle=orthogonalEdgeStyle;rounded=0;orthogonalLoop=1;jettySize=auto;html=1;exitX=1;exitY=0.5;exitDx=0;exitDy=0;dashed=1;" edge="1" parent="1" source="u8SPaS517Cv4ZTtqpxez-22" target="2jFotZzuo-0jKtzKab7L-13">
          <mxGeometry relative="1" as="geometry" />
        </mxCell>
        <mxCell id="u8SPaS517Cv4ZTtqpxez-22" value="&lt;div&gt;MapQuest&lt;/div&gt;&lt;div&gt;Repository&lt;br&gt;&lt;/div&gt;" style="rounded=0;whiteSpace=wrap;html=1;fillColor=none;" parent="1" vertex="1">
          <mxGeometry x="862" y="510" width="80" height="40" as="geometry" />
        </mxCell>
        <mxCell id="2jFotZzuo-0jKtzKab7L-41" style="edgeStyle=orthogonalEdgeStyle;rounded=0;orthogonalLoop=1;jettySize=auto;html=1;exitX=1;exitY=0.5;exitDx=0;exitDy=0;dashed=1;" edge="1" parent="1" source="u8SPaS517Cv4ZTtqpxez-52" target="u8SPaS517Cv4ZTtqpxez-17">
          <mxGeometry relative="1" as="geometry">
            <Array as="points">
              <mxPoint x="180" y="215" />
              <mxPoint x="180" y="360" />
            </Array>
          </mxGeometry>
        </mxCell>
        <mxCell id="u8SPaS517Cv4ZTtqpxez-52" value="JavaFX Client" style="rounded=0;whiteSpace=wrap;html=1;fillColor=none;verticalAlign=top;" parent="1" vertex="1">
          <mxGeometry x="50" y="80" width="80" height="270" as="geometry" />
        </mxCell>
        <mxCell id="2jFotZzuo-0jKtzKab7L-42" style="edgeStyle=orthogonalEdgeStyle;rounded=0;orthogonalLoop=1;jettySize=auto;html=1;exitX=1;exitY=0.5;exitDx=0;exitDy=0;dashed=1;" edge="1" parent="1" source="u8SPaS517Cv4ZTtqpxez-53" target="u8SPaS517Cv4ZTtqpxez-17">
          <mxGeometry relative="1" as="geometry">
            <Array as="points">
              <mxPoint x="180" y="505" />
              <mxPoint x="180" y="360" />
            </Array>
          </mxGeometry>
        </mxCell>
        <mxCell id="u8SPaS517Cv4ZTtqpxez-53" value="Postman" style="rounded=0;whiteSpace=wrap;html=1;fillColor=none;verticalAlign=top;" parent="1" vertex="1">
          <mxGeometry x="50" y="370" width="80" height="270" as="geometry" />
        </mxCell>
        <mxCell id="2jFotZzuo-0jKtzKab7L-7" value="DataTransfer Service" style="rounded=0;whiteSpace=wrap;html=1;fillColor=none;verticalAlign=top;" vertex="1" parent="1">
          <mxGeometry x="470" y="470" width="260" height="170" as="geometry" />
        </mxCell>
        <mxCell id="2jFotZzuo-0jKtzKab7L-8" style="edgeStyle=orthogonalEdgeStyle;rounded=0;orthogonalLoop=1;jettySize=auto;html=1;exitX=0.5;exitY=1;exitDx=0;exitDy=0;entryX=0;entryY=0.5;entryDx=0;entryDy=0;dashed=1;" edge="1" parent="1" source="2jFotZzuo-0jKtzKab7L-10" target="2jFotZzuo-0jKtzKab7L-12">
          <mxGeometry relative="1" as="geometry" />
        </mxCell>
        <mxCell id="2jFotZzuo-0jKtzKab7L-9" style="edgeStyle=orthogonalEdgeStyle;rounded=0;orthogonalLoop=1;jettySize=auto;html=1;exitX=1;exitY=0.5;exitDx=0;exitDy=0;entryX=0;entryY=0.5;entryDx=0;entryDy=0;dashed=1;" edge="1" parent="1" source="2jFotZzuo-0jKtzKab7L-10" target="2jFotZzuo-0jKtzKab7L-11">
          <mxGeometry relative="1" as="geometry" />
        </mxCell>
        <mxCell id="2jFotZzuo-0jKtzKab7L-10" value="Controller" style="rounded=0;whiteSpace=wrap;html=1;fillColor=none;" vertex="1" parent="1">
          <mxGeometry x="500" y="510" width="80" height="40" as="geometry" />
        </mxCell>
        <mxCell id="2jFotZzuo-0jKtzKab7L-28" style="edgeStyle=orthogonalEdgeStyle;rounded=0;orthogonalLoop=1;jettySize=auto;html=1;exitX=1;exitY=0.5;exitDx=0;exitDy=0;entryX=0;entryY=0.75;entryDx=0;entryDy=0;dashed=1;" edge="1" parent="1" source="2jFotZzuo-0jKtzKab7L-11" target="u8SPaS517Cv4ZTtqpxez-20">
          <mxGeometry relative="1" as="geometry">
            <Array as="points">
              <mxPoint x="790" y="530" />
              <mxPoint x="790" y="150" />
            </Array>
          </mxGeometry>
        </mxCell>
        <mxCell id="2jFotZzuo-0jKtzKab7L-29" style="edgeStyle=orthogonalEdgeStyle;rounded=0;orthogonalLoop=1;jettySize=auto;html=1;exitX=1;exitY=0.5;exitDx=0;exitDy=0;entryX=0;entryY=0.75;entryDx=0;entryDy=0;dashed=1;" edge="1" parent="1" source="2jFotZzuo-0jKtzKab7L-11" target="u8SPaS517Cv4ZTtqpxez-22">
          <mxGeometry relative="1" as="geometry">
            <Array as="points">
              <mxPoint x="790" y="530" />
              <mxPoint x="790" y="540" />
            </Array>
          </mxGeometry>
        </mxCell>
        <mxCell id="2jFotZzuo-0jKtzKab7L-11" value="Model" style="rounded=0;whiteSpace=wrap;html=1;fillColor=none;" vertex="1" parent="1">
          <mxGeometry x="620" y="510" width="80" height="40" as="geometry" />
        </mxCell>
        <mxCell id="2jFotZzuo-0jKtzKab7L-12" value="View (Response)" style="rounded=0;whiteSpace=wrap;html=1;fillColor=none;" vertex="1" parent="1">
          <mxGeometry x="560" y="570" width="80" height="40" as="geometry" />
        </mxCell>
        <mxCell id="2jFotZzuo-0jKtzKab7L-13" value="MapQuest API" style="rounded=0;whiteSpace=wrap;html=1;fillColor=none;verticalAlign=top;" vertex="1" parent="1">
          <mxGeometry x="1030" y="460" width="90" height="180" as="geometry" />
        </mxCell>
      </root>
    </mxGraphModel>
  </diagram>
</mxfile>
